<?xml version="1.0" standalone="no"?>
<!DOCTYPE svg PUBLIC "-//W3C//DTD SVG 1.1//EN" "http://www.w3.org/Graphics/SVG/1.1/DTD/svg11.dtd">
<svg width="100%" height="100%" viewBox="0 0 1663 521" version="1.1" xmlns="http://www.w3.org/2000/svg" xmlns:xlink="http://www.w3.org/1999/xlink" xml:space="preserve" style="fill-rule:evenodd;clip-rule:evenodd;stroke-linejoin:round;stroke-miterlimit:1.41421;">
    <g transform="matrix(4.16667,0,0,4.16667,0,0)">
        <rect x="0" y="0.276" width="124.585" height="62.352" style="fill:rgb(35,31,32);fill-rule:nonzero;"/>
        <rect x="52.121" y="12.747" width="24.623" height="2.635" style="fill:white;fill-rule:nonzero;"/>
        <rect x="63.115" y="19.336" width="2.635" height="30.822" style="fill:white;fill-rule:nonzero;"/>
        <rect x="90.161" y="30.134" width="15.364" height="2.636" style="fill:white;fill-rule:nonzero;"/>
        <rect x="83.572" y="12.747" width="2.636" height="37.411" style="fill:white;fill-rule:nonzero;"/>
        <rect x="109.479" y="12.747" width="2.635" height="37.411" style="fill:white;fill-rule:nonzero;"/>
        <path d="M45.724,19.699L43.842,21.581C45.972,24.307 47.245,27.733 47.245,31.452C47.245,40.313 40.036,47.522 31.175,47.522C27.456,47.522 24.03,46.248 21.304,44.119L19.422,46.001C22.635,48.599 26.722,50.158 31.175,50.158C41.506,50.158 49.881,41.783 49.881,31.452C49.881,26.999 48.322,22.912 45.724,19.699Z" style="fill:white;fill-rule:nonzero;"/>
        <path d="M18.509,41.324C16.379,38.597 15.106,35.172 15.106,31.452C15.106,22.591 22.314,15.383 31.175,15.383C34.895,15.383 38.32,16.656 41.047,18.786L42.928,16.904C39.716,14.306 35.629,12.747 31.175,12.747C20.845,12.747 12.47,21.122 12.47,31.452C12.47,35.906 14.029,39.993 16.627,43.205L18.509,41.324Z" style="fill:white;fill-rule:nonzero;"/>
        <path d="M141.924,20.846C143.806,20.846 145.215,19.358 145.215,17.357C145.215,15.369 143.806,13.868 141.924,13.868C140.041,13.868 138.632,15.369 138.632,17.357C138.632,19.358 140.041,20.846 141.924,20.846ZM141.924,12.617C144.53,12.617 146.532,14.671 146.532,17.357C146.532,20.043 144.53,22.097 141.924,22.097C139.317,22.097 137.316,20.043 137.316,17.357C137.316,14.671 139.317,12.617 141.924,12.617Z" style="fill:rgb(35,31,32);fill-rule:nonzero;"/>
        <path d="M150.073,19.661C150.612,20.319 151.376,20.846 152.324,20.846C153.18,20.846 153.93,20.293 153.93,19.463C153.93,18.055 151.982,17.897 150.757,17.094C150.099,16.659 149.585,16.027 149.585,15.066C149.585,13.723 150.771,12.617 152.376,12.617C153.548,12.617 154.365,13.131 154.852,13.539L154.075,14.5C153.575,14.079 153.009,13.868 152.429,13.868C151.666,13.868 150.902,14.303 150.902,15.106C150.902,16.277 152.864,16.528 154.049,17.318C154.667,17.726 155.247,18.371 155.247,19.424C155.247,21.044 153.996,22.097 152.39,22.097C151.126,22.097 149.98,21.544 149.164,20.556L150.073,19.661Z" style="fill:rgb(35,31,32);fill-rule:nonzero;"/>
        <path d="M157.55,12.749L163.87,12.749L163.87,14L161.368,14L161.368,21.965L160.052,21.965L160.052,14L157.55,14L157.55,12.749Z" style="fill:rgb(35,31,32);fill-rule:nonzero;"/>
        <path d="M170.413,20.714C171.242,20.714 171.637,20.53 171.927,20.24C172.19,19.964 172.361,19.582 172.361,19.161C172.361,18.739 172.19,18.371 171.927,18.094C171.637,17.805 171.242,17.62 170.413,17.62L168.411,17.62L168.411,20.714L170.413,20.714ZM169.991,16.37C170.729,16.37 171.045,16.225 171.255,15.988C171.453,15.777 171.571,15.501 171.571,15.185C171.571,14.869 171.453,14.592 171.255,14.382C171.045,14.145 170.729,14 169.991,14L168.411,14L168.411,16.37L169.991,16.37ZM167.095,21.965L167.095,12.749L170.228,12.749C171.124,12.749 171.69,12.999 172.124,13.394C172.598,13.829 172.888,14.461 172.888,15.145C172.888,15.777 172.598,16.383 172.164,16.791C173.033,17.225 173.678,18.173 173.678,19.213C173.678,20.069 173.283,20.846 172.664,21.346C172.19,21.741 171.584,21.965 170.65,21.965L167.095,21.965Z" style="fill:rgb(35,31,32);fill-rule:nonzero;"/>
        <path d="M178.773,18.344L181.616,18.344L180.195,14.921L178.773,18.344ZM182.13,19.595L178.246,19.595L177.285,21.965L175.916,21.965L179.734,12.749L180.656,12.749L184.473,21.965L183.104,21.965L182.13,19.595Z" style="fill:rgb(35,31,32);fill-rule:nonzero;"/>
        <path d="M189.937,17.752L189.937,21.965L188.62,21.965L188.62,17.752L185.461,12.749L186.935,12.749L189.279,16.449L191.622,12.749L193.097,12.749L189.937,17.752Z" style="fill:rgb(35,31,32);fill-rule:nonzero;"/>
        <path d="M200.601,16.37L200.601,17.62L197.572,17.62L197.572,20.714L201.654,20.714L201.654,21.965L196.256,21.965L196.256,12.749L201.522,12.749L201.522,14L197.572,14L197.572,16.37L200.601,16.37Z" style="fill:rgb(35,31,32);fill-rule:nonzero;"/>
        <path d="M208.368,16.37C208.96,16.37 209.263,16.238 209.474,16.027C209.685,15.817 209.816,15.514 209.816,15.185C209.816,14.856 209.685,14.553 209.474,14.342C209.263,14.131 208.96,14 208.368,14L206.525,14L206.525,16.37L208.368,16.37ZM206.525,17.62L206.525,21.965L205.208,21.965L205.208,12.749L208.434,12.749C209.276,12.749 209.803,12.947 210.224,13.289C210.777,13.737 211.133,14.421 211.133,15.185C211.133,15.948 210.777,16.633 210.224,17.081C209.935,17.318 209.605,17.489 209.145,17.568L212.449,21.965L210.856,21.965L207.578,17.62L206.525,17.62Z" style="fill:rgb(35,31,32);fill-rule:nonzero;"/>
        <rect x="215.477" y="12.749" width="1.317" height="9.216" style="fill:rgb(35,31,32);fill-rule:nonzero;"/>
        <path d="M221.125,19.661C221.665,20.319 222.428,20.846 223.376,20.846C224.232,20.846 224.983,20.293 224.983,19.463C224.983,18.055 223.034,17.897 221.81,17.094C221.152,16.659 220.638,16.027 220.638,15.066C220.638,13.723 221.823,12.617 223.429,12.617C224.601,12.617 225.417,13.131 225.904,13.539L225.127,14.5C224.627,14.079 224.061,13.868 223.482,13.868C222.718,13.868 221.955,14.303 221.955,15.106C221.955,16.277 223.916,16.528 225.101,17.318C225.72,17.726 226.299,18.371 226.299,19.424C226.299,21.044 225.048,22.097 223.442,22.097C222.178,22.097 221.033,21.544 220.217,20.556L221.125,19.661Z" style="fill:rgb(35,31,32);fill-rule:nonzero;"/>
        <path d="M233.79,12.617C235.107,12.617 236.357,13.157 237.16,14.039L236.279,14.908C235.738,14.316 234.778,13.868 233.79,13.868C231.907,13.868 230.446,15.369 230.446,17.357C230.446,19.437 231.947,20.846 233.909,20.846C235.146,20.846 236.041,20.161 236.555,19.543L237.49,20.385C236.7,21.399 235.331,22.097 233.909,22.097C231.157,22.097 229.129,20.082 229.129,17.357C229.129,14.698 231.131,12.617 233.79,12.617Z" style="fill:rgb(35,31,32);fill-rule:nonzero;"/>
        <path d="M247.231,17.62L242.097,17.62L242.097,21.965L240.78,21.965L240.78,12.749L242.097,12.749L242.097,16.37L247.231,16.37L247.231,12.749L248.548,12.749L248.548,21.965L247.231,21.965L247.231,17.62Z" style="fill:rgb(35,31,32);fill-rule:nonzero;"/>
        <path d="M257.105,16.37L257.105,17.62L254.077,17.62L254.077,20.714L258.159,20.714L258.159,21.965L252.76,21.965L252.76,12.749L258.027,12.749L258.027,14L254.077,14L254.077,16.37L257.105,16.37Z" style="fill:rgb(35,31,32);fill-rule:nonzero;"/>
        <path d="M137.052,26.845L143.372,26.845L143.372,28.095L140.87,28.095L140.87,36.061L139.554,36.061L139.554,28.095L137.052,28.095L137.052,26.845Z" style="fill:rgb(35,31,32);fill-rule:nonzero;"/>
        <path d="M150.942,30.465L150.942,31.716L147.913,31.716L147.913,34.81L151.995,34.81L151.995,36.061L146.597,36.061L146.597,26.845L151.863,26.845L151.863,28.095L147.913,28.095L147.913,30.465L150.942,30.465Z" style="fill:rgb(35,31,32);fill-rule:nonzero;"/>
        <path d="M159.222,26.713C160.539,26.713 161.79,27.253 162.593,28.135L161.711,29.004C161.171,28.411 160.21,27.964 159.222,27.964C157.34,27.964 155.878,29.465 155.878,31.453C155.878,33.533 157.379,34.942 159.341,34.942C160.579,34.942 161.474,34.257 161.987,33.638L162.922,34.481C162.132,35.495 160.763,36.192 159.341,36.192C156.589,36.192 154.562,34.178 154.562,31.453C154.562,28.793 156.563,26.713 159.222,26.713Z" style="fill:rgb(35,31,32);fill-rule:nonzero;"/>
        <path d="M172.664,31.716L167.529,31.716L167.529,36.061L166.213,36.061L166.213,26.845L167.529,26.845L167.529,30.465L172.664,30.465L172.664,26.845L173.98,26.845L173.98,36.061L172.664,36.061L172.664,31.716Z" style="fill:rgb(35,31,32);fill-rule:nonzero;"/>
        <path d="M179.509,29.294L179.509,36.061L178.193,36.061L178.193,26.845L179.114,26.845L184.644,33.612L184.644,26.845L185.961,26.845L185.961,36.061L185.039,36.061L179.509,29.294Z" style="fill:rgb(35,31,32);fill-rule:nonzero;"/>
        <rect x="190.173" y="26.845" width="1.317" height="9.216" style="fill:rgb(35,31,32);fill-rule:nonzero;"/>
        <path d="M195.821,33.757C196.361,34.415 197.124,34.942 198.072,34.942C198.928,34.942 199.678,34.389 199.678,33.559C199.678,32.151 197.73,31.993 196.506,31.189C195.847,30.755 195.334,30.123 195.334,29.162C195.334,27.819 196.519,26.713 198.125,26.713C199.297,26.713 200.113,27.227 200.6,27.635L199.823,28.596C199.323,28.174 198.757,27.964 198.178,27.964C197.414,27.964 196.65,28.398 196.65,29.201C196.65,30.373 198.612,30.623 199.797,31.413C200.416,31.821 200.995,32.467 200.995,33.52C200.995,35.139 199.744,36.192 198.138,36.192C196.874,36.192 195.729,35.639 194.912,34.652L195.821,33.757Z" style="fill:rgb(35,31,32);fill-rule:nonzero;"/>
        <path d="M208.486,26.713C209.802,26.713 211.053,27.253 211.856,28.135L210.974,29.004C210.434,28.411 209.473,27.964 208.486,27.964C206.603,27.964 205.142,29.465 205.142,31.453C205.142,33.533 206.643,34.942 208.604,34.942C209.842,34.942 210.737,34.257 211.251,33.638L212.185,34.481C211.395,35.495 210.026,36.192 208.604,36.192C205.853,36.192 203.825,34.178 203.825,31.453C203.825,28.793 205.826,26.713 208.486,26.713Z" style="fill:rgb(35,31,32);fill-rule:nonzero;"/>
        <path d="M221.927,31.716L216.793,31.716L216.793,36.061L215.476,36.061L215.476,26.845L216.793,26.845L216.793,30.465L221.927,30.465L221.927,26.845L223.244,26.845L223.244,36.061L221.927,36.061L221.927,31.716Z" style="fill:rgb(35,31,32);fill-rule:nonzero;"/>
        <path d="M231.801,30.465L231.801,31.716L228.773,31.716L228.773,34.81L232.855,34.81L232.855,36.061L227.456,36.061L227.456,26.845L232.723,26.845L232.723,28.095L228.773,28.095L228.773,30.465L231.801,30.465Z" style="fill:rgb(35,31,32);fill-rule:nonzero;"/>
        <path d="M248.257,31.716L243.123,31.716L243.123,36.061L241.806,36.061L241.806,26.845L243.123,26.845L243.123,30.465L248.257,30.465L248.257,26.845L249.574,26.845L249.574,36.061L248.257,36.061L248.257,31.716Z" style="fill:rgb(35,31,32);fill-rule:nonzero;"/>
        <path d="M257.67,34.942C259.553,34.942 260.962,33.454 260.962,31.453C260.962,29.465 259.553,27.964 257.67,27.964C255.788,27.964 254.379,29.465 254.379,31.453C254.379,33.454 255.788,34.942 257.67,34.942ZM257.67,26.713C260.277,26.713 262.278,28.767 262.278,31.453C262.278,34.139 260.277,36.192 257.67,36.192C255.064,36.192 253.062,34.139 253.062,31.453C253.062,28.767 255.064,26.713 257.67,26.713Z" style="fill:rgb(35,31,32);fill-rule:nonzero;"/>
        <path d="M269.966,26.713C271.283,26.713 272.534,27.253 273.337,28.135L272.455,29.004C271.915,28.411 270.954,27.964 269.966,27.964C268.084,27.964 266.622,29.465 266.622,31.453C266.622,33.533 268.123,34.942 270.085,34.942C271.323,34.942 272.218,34.257 272.731,33.638L273.666,34.481C272.876,35.495 271.507,36.192 270.085,36.192C267.333,36.192 265.306,34.178 265.306,31.453C265.306,28.793 267.307,26.713 269.966,26.713Z" style="fill:rgb(35,31,32);fill-rule:nonzero;"/>
        <path d="M283.408,31.716L278.273,31.716L278.273,36.061L276.957,36.061L276.957,26.845L278.273,26.845L278.273,30.465L283.408,30.465L283.408,26.845L284.724,26.845L284.724,36.061L283.408,36.061L283.408,31.716Z" style="fill:rgb(35,31,32);fill-rule:nonzero;"/>
        <path d="M289.055,33.757C289.595,34.415 290.359,34.942 291.307,34.942C292.162,34.942 292.913,34.389 292.913,33.559C292.913,32.151 290.964,31.993 289.74,31.189C289.082,30.755 288.568,30.123 288.568,29.162C288.568,27.819 289.753,26.713 291.359,26.713C292.531,26.713 293.347,27.227 293.835,27.635L293.058,28.596C292.558,28.174 291.991,27.964 291.412,27.964C290.648,27.964 289.885,28.398 289.885,29.201C289.885,30.373 291.846,30.623 293.032,31.413C293.65,31.821 294.23,32.467 294.23,33.52C294.23,35.139 292.979,36.192 291.372,36.192C290.109,36.192 288.963,35.639 288.147,34.652L289.055,33.757Z" style="fill:rgb(35,31,32);fill-rule:nonzero;"/>
        <path d="M301.72,26.713C303.037,26.713 304.288,27.253 305.091,28.135L304.209,29.004C303.669,28.411 302.708,27.964 301.72,27.964C299.837,27.964 298.376,29.465 298.376,31.453C298.376,33.533 299.877,34.942 301.839,34.942C303.076,34.942 303.972,34.257 304.485,33.638L305.42,34.481C304.63,35.495 303.261,36.192 301.839,36.192C299.087,36.192 297.06,34.178 297.06,31.453C297.06,28.793 299.061,26.713 301.72,26.713Z" style="fill:rgb(35,31,32);fill-rule:nonzero;"/>
        <path d="M315.162,31.716L310.027,31.716L310.027,36.061L308.71,36.061L308.71,26.845L310.027,26.845L310.027,30.465L315.162,30.465L315.162,26.845L316.478,26.845L316.478,36.061L315.162,36.061L315.162,31.716Z" style="fill:rgb(35,31,32);fill-rule:nonzero;"/>
        <path d="M321.52,34.981C320.928,34.336 320.559,33.48 320.559,32.243L320.559,26.845L321.876,26.845L321.876,32.308C321.876,33.178 322.086,33.717 322.455,34.125C322.916,34.639 323.6,34.942 324.377,34.942C325.154,34.942 325.838,34.639 326.299,34.125C326.668,33.717 326.879,33.178 326.879,32.308L326.879,26.845L328.195,26.845L328.195,32.243C328.195,33.48 327.827,34.336 327.234,34.981C326.536,35.732 325.509,36.192 324.377,36.192C323.245,36.192 322.218,35.732 321.52,34.981Z" style="fill:rgb(35,31,32);fill-rule:nonzero;"/>
        <path d="M333.592,34.81L337.674,34.81L337.674,36.061L332.276,36.061L332.276,26.845L333.592,26.845L333.592,34.81Z" style="fill:rgb(35,31,32);fill-rule:nonzero;"/>
        <path d="M345.309,30.465L345.309,31.716L342.281,31.716L342.281,34.81L346.363,34.81L346.363,36.061L340.964,36.061L340.964,26.845L346.231,26.845L346.231,28.095L342.281,28.095L342.281,30.465L345.309,30.465Z" style="fill:rgb(35,31,32);fill-rule:nonzero;"/>
        <path d="M141.2,44.561C141.792,44.561 142.095,44.429 142.305,44.219C142.516,44.008 142.648,43.705 142.648,43.376C142.648,43.047 142.516,42.744 142.305,42.533C142.095,42.323 141.792,42.191 141.2,42.191L139.356,42.191L139.356,44.561L141.2,44.561ZM139.356,45.812L139.356,50.156L138.04,50.156L138.04,40.94L141.265,40.94C142.108,40.94 142.634,41.138 143.056,41.48C143.609,41.928 143.964,42.612 143.964,43.376C143.964,44.14 143.609,44.824 143.056,45.272C142.766,45.509 142.437,45.68 141.976,45.759L145.281,50.156L143.688,50.156L140.41,45.812L139.356,45.812Z" style="fill:rgb(35,31,32);fill-rule:nonzero;"/>
        <path d="M152.653,44.561L152.653,45.812L149.625,45.812L149.625,48.906L153.707,48.906L153.707,50.156L148.308,50.156L148.308,40.94L153.575,40.94L153.575,42.191L149.625,42.191L149.625,44.561L152.653,44.561Z" style="fill:rgb(35,31,32);fill-rule:nonzero;"/>
        <path d="M164.634,48.576C163.844,49.577 162.475,50.288 161.053,50.288C158.301,50.288 156.273,48.273 156.273,45.548C156.273,42.889 158.275,40.809 160.934,40.809C162.251,40.809 163.501,41.348 164.304,42.23L163.423,43.099C162.882,42.507 161.922,42.059 160.934,42.059C159.051,42.059 157.59,43.56 157.59,45.548C157.59,47.628 159.091,49.037 161.053,49.037C162.027,49.037 162.83,48.668 163.317,48.181L163.317,45.812L160.684,45.812L160.684,44.561L164.634,44.561L164.634,48.576Z" style="fill:rgb(35,31,32);fill-rule:nonzero;"/>
        <path d="M172.862,44.561L172.862,45.812L169.833,45.812L169.833,48.906L173.915,48.906L173.915,50.156L168.517,50.156L168.517,40.94L173.783,40.94L173.783,42.191L169.833,42.191L169.833,44.561L172.862,44.561Z" style="fill:rgb(35,31,32);fill-rule:nonzero;"/>
        <path d="M178.786,43.389L178.786,50.156L177.469,50.156L177.469,40.94L178.391,40.94L183.92,47.707L183.92,40.94L185.237,40.94L185.237,50.156L184.315,50.156L178.786,43.389Z" style="fill:rgb(35,31,32);fill-rule:nonzero;"/>
        <path d="M189.568,47.852C190.108,48.511 190.871,49.037 191.819,49.037C192.675,49.037 193.425,48.484 193.425,47.655C193.425,46.246 191.477,46.088 190.253,45.285C189.594,44.85 189.081,44.219 189.081,43.257C189.081,41.914 190.266,40.809 191.872,40.809C193.044,40.809 193.86,41.322 194.347,41.73L193.57,42.691C193.07,42.27 192.504,42.059 191.925,42.059C191.161,42.059 190.397,42.494 190.397,43.297C190.397,44.469 192.359,44.719 193.544,45.509C194.163,45.917 194.742,46.562 194.742,47.615C194.742,49.235 193.491,50.288 191.885,50.288C190.621,50.288 189.476,49.735 188.659,48.747L189.568,47.852Z" style="fill:rgb(35,31,32);fill-rule:nonzero;"/>
        <path d="M201.614,48.906C202.443,48.906 202.838,48.721 203.128,48.432C203.391,48.155 203.562,47.773 203.562,47.352C203.562,46.931 203.391,46.562 203.128,46.286C202.838,45.996 202.443,45.812 201.614,45.812L199.613,45.812L199.613,48.906L201.614,48.906ZM201.193,44.561C201.93,44.561 202.246,44.416 202.457,44.179C202.654,43.968 202.773,43.692 202.773,43.376C202.773,43.06 202.654,42.783 202.457,42.573C202.246,42.336 201.93,42.191 201.193,42.191L199.613,42.191L199.613,44.561L201.193,44.561ZM198.296,50.156L198.296,40.94L201.43,40.94C202.325,40.94 202.891,41.19 203.326,41.585C203.8,42.02 204.089,42.652 204.089,43.336C204.089,43.968 203.8,44.574 203.365,44.982C204.234,45.417 204.879,46.365 204.879,47.405C204.879,48.26 204.484,49.037 203.865,49.537C203.391,49.933 202.786,50.156 201.851,50.156L198.296,50.156Z" style="fill:rgb(35,31,32);fill-rule:nonzero;"/>
        <path d="M209.131,49.077C208.539,48.432 208.17,47.576 208.17,46.338L208.17,40.94L209.487,40.94L209.487,46.404C209.487,47.273 209.697,47.813 210.066,48.221C210.527,48.734 211.211,49.037 211.988,49.037C212.765,49.037 213.449,48.734 213.91,48.221C214.279,47.813 214.49,47.273 214.49,46.404L214.49,40.94L215.806,40.94L215.806,46.338C215.806,47.576 215.438,48.432 214.845,49.077C214.147,49.827 213.121,50.288 211.988,50.288C210.856,50.288 209.829,49.827 209.131,49.077Z" style="fill:rgb(35,31,32);fill-rule:nonzero;"/>
        <path d="M223.047,44.561C223.639,44.561 223.942,44.429 224.153,44.219C224.364,44.008 224.495,43.705 224.495,43.376C224.495,43.047 224.364,42.744 224.153,42.533C223.942,42.323 223.639,42.191 223.047,42.191L221.204,42.191L221.204,44.561L223.047,44.561ZM221.204,45.812L221.204,50.156L219.887,50.156L219.887,40.94L223.113,40.94C223.956,40.94 224.482,41.138 224.903,41.48C225.456,41.928 225.812,42.612 225.812,43.376C225.812,44.14 225.456,44.824 224.903,45.272C224.614,45.509 224.284,45.68 223.824,45.759L227.128,50.156L225.535,50.156L222.257,45.812L221.204,45.812Z" style="fill:rgb(35,31,32);fill-rule:nonzero;"/>
        <path d="M237.463,48.576C236.673,49.577 235.304,50.288 233.882,50.288C231.13,50.288 229.103,48.273 229.103,45.548C229.103,42.889 231.104,40.809 233.764,40.809C235.08,40.809 236.331,41.348 237.134,42.23L236.252,43.099C235.712,42.507 234.751,42.059 233.764,42.059C231.881,42.059 230.42,43.56 230.42,45.548C230.42,47.628 231.92,49.037 233.882,49.037C234.857,49.037 235.66,48.668 236.147,48.181L236.147,45.812L233.514,45.812L233.514,44.561L237.463,44.561L237.463,48.576Z" style="fill:rgb(35,31,32);fill-rule:nonzero;"/>
        <rect x="0" y="118.382" width="124.585" height="6.618" style="fill:rgb(35,31,32);fill-rule:nonzero;"/>
        <path d="M140.408,79.966L143.686,84.311L145.279,84.311L141.975,79.914C142.436,79.835 142.765,79.663 143.054,79.426C143.607,78.979 143.963,78.294 143.963,77.531C143.963,76.767 143.607,76.082 143.054,75.635C142.633,75.293 142.106,75.095 141.264,75.095L138.038,75.095L138.038,84.311L139.355,84.311L139.355,79.966L140.408,79.966ZM139.355,78.715L139.355,76.346L141.198,76.346C141.79,76.346 142.093,76.477 142.304,76.688C142.515,76.899 142.646,77.201 142.646,77.531C142.646,77.86 142.515,78.163 142.304,78.373C142.093,78.584 141.79,78.715 141.198,78.715L139.355,78.715Z" style="fill:rgb(35,31,32);fill-rule:nonzero;"/>
        <path d="M149.624,78.715L149.624,76.346L153.573,76.346L153.573,75.095L148.307,75.095L148.307,84.311L153.705,84.311L153.705,83.06L149.624,83.06L149.624,79.966L152.652,79.966L152.652,78.715L149.624,78.715Z" style="fill:rgb(35,31,32);fill-rule:nonzero;"/>
        <path d="M164.632,78.715L160.682,78.715L160.682,79.966L163.315,79.966L163.315,82.336C162.828,82.823 162.025,83.192 161.051,83.192C159.089,83.192 157.588,81.783 157.588,79.703C157.588,77.715 159.05,76.214 160.932,76.214C161.92,76.214 162.881,76.662 163.42,77.254L164.303,76.385C163.499,75.503 162.249,74.963 160.932,74.963C158.273,74.963 156.272,77.044 156.272,79.703C156.272,82.428 158.299,84.442 161.051,84.442C162.473,84.442 163.842,83.731 164.632,82.731L164.632,78.715Z" style="fill:rgb(35,31,32);fill-rule:nonzero;"/>
        <path d="M169.832,78.715L169.832,76.346L173.781,76.346L173.781,75.095L168.515,75.095L168.515,84.311L173.913,84.311L173.913,83.06L169.832,83.06L169.832,79.966L172.86,79.966L172.86,78.715L169.832,78.715Z" style="fill:rgb(35,31,32);fill-rule:nonzero;"/>
        <path d="M184.313,84.311L185.235,84.311L185.235,75.095L183.918,75.095L183.918,81.862L178.389,75.095L177.468,75.095L177.468,84.311L178.784,84.311L178.784,77.544L184.313,84.311Z" style="fill:rgb(35,31,32);fill-rule:nonzero;"/>
        <path d="M188.658,82.902C189.474,83.889 190.62,84.442 191.884,84.442C193.49,84.442 194.74,83.389 194.74,81.77C194.74,80.717 194.161,80.072 193.542,79.663C192.358,78.873 190.396,78.623 190.396,77.452C190.396,76.649 191.16,76.214 191.923,76.214C192.502,76.214 193.068,76.425 193.569,76.846L194.345,75.885C193.858,75.477 193.042,74.963 191.87,74.963C190.264,74.963 189.079,76.069 189.079,77.412C189.079,78.373 189.593,79.005 190.251,79.44C191.475,80.243 193.424,80.401 193.424,81.809C193.424,82.639 192.674,83.192 191.818,83.192C190.87,83.192 190.106,82.665 189.567,82.007L188.658,82.902Z" style="fill:rgb(35,31,32);fill-rule:nonzero;"/>
        <path d="M199.611,83.06L199.611,79.966L201.612,79.966C202.442,79.966 202.837,80.151 203.126,80.44C203.39,80.717 203.561,81.085 203.561,81.507C203.561,81.928 203.39,82.31 203.126,82.586C202.837,82.876 202.442,83.06 201.612,83.06L199.611,83.06ZM199.611,78.715L199.611,76.346L201.191,76.346C201.928,76.346 202.244,76.491 202.455,76.728C202.652,76.938 202.771,77.215 202.771,77.531C202.771,77.847 202.652,78.123 202.455,78.334C202.244,78.571 201.928,78.715 201.191,78.715L199.611,78.715ZM201.849,84.311C202.784,84.311 203.39,84.087 203.864,83.692C204.482,83.192 204.877,82.415 204.877,81.559C204.877,80.519 204.232,79.571 203.363,79.137C203.798,78.729 204.087,78.123 204.087,77.491C204.087,76.807 203.798,76.175 203.324,75.74C202.889,75.345 202.323,75.095 201.428,75.095L198.295,75.095L198.295,84.311L201.849,84.311Z" style="fill:rgb(35,31,32);fill-rule:nonzero;"/>
        <path d="M211.986,84.442C213.119,84.442 214.145,83.982 214.843,83.231C215.436,82.586 215.804,81.73 215.804,80.493L215.804,75.095L214.488,75.095L214.488,80.559C214.488,81.428 214.277,81.967 213.909,82.375C213.448,82.889 212.763,83.192 211.986,83.192C211.21,83.192 210.525,82.889 210.064,82.375C209.696,81.967 209.485,81.428 209.485,80.559L209.485,75.095L208.168,75.095L208.168,80.493C208.168,81.73 208.537,82.586 209.13,83.231C209.827,83.982 210.854,84.442 211.986,84.442Z" style="fill:rgb(35,31,32);fill-rule:nonzero;"/>
        <path d="M222.255,79.966L225.533,84.311L227.126,84.311L223.822,79.914C224.283,79.835 224.612,79.663 224.901,79.426C225.454,78.979 225.81,78.294 225.81,77.531C225.81,76.767 225.454,76.082 224.901,75.635C224.48,75.293 223.954,75.095 223.111,75.095L219.886,75.095L219.886,84.311L221.202,84.311L221.202,79.966L222.255,79.966ZM221.202,78.715L221.202,76.346L223.045,76.346C223.638,76.346 223.94,76.477 224.151,76.688C224.362,76.899 224.493,77.202 224.493,77.531C224.493,77.86 224.362,78.163 224.151,78.373C223.94,78.584 223.638,78.715 223.045,78.715L221.202,78.715Z" style="fill:rgb(35,31,32);fill-rule:nonzero;"/>
        <path d="M237.461,78.715L233.512,78.715L233.512,79.966L236.145,79.966L236.145,82.336C235.658,82.823 234.855,83.192 233.88,83.192C231.919,83.192 230.418,81.783 230.418,79.703C230.418,77.715 231.879,76.214 233.762,76.214C234.749,76.214 235.71,76.662 236.25,77.254L237.132,76.385C236.329,75.503 235.078,74.963 233.762,74.963C231.103,74.963 229.101,77.044 229.101,79.703C229.101,82.428 231.129,84.442 233.88,84.442C235.302,84.442 236.671,83.731 237.461,82.731L237.461,78.715Z" style="fill:rgb(35,31,32);fill-rule:nonzero;"/>
        <path d="M254.378,78.11L254.378,84.311L255.694,84.311L255.694,75.095L254.773,75.095L251.218,80.717L247.664,75.095L246.742,75.095L246.742,84.311L248.059,84.311L248.059,78.11L250.757,82.336L251.679,82.336L254.378,78.11Z" style="fill:rgb(35,31,32);fill-rule:nonzero;"/>
        <path d="M261.224,78.715L261.224,76.346L265.173,76.346L265.173,75.095L259.907,75.095L259.907,84.311L265.305,84.311L265.305,83.06L261.224,83.06L261.224,79.966L264.252,79.966L264.252,78.715L261.224,78.715Z" style="fill:rgb(35,31,32);fill-rule:nonzero;"/>
        <path d="M275.311,79.703C275.311,80.73 274.89,81.665 274.192,82.283C273.613,82.784 272.849,83.06 271.559,83.06L270.177,83.06L270.177,76.346L271.559,76.346C272.849,76.346 273.613,76.622 274.192,77.123C274.89,77.741 275.311,78.676 275.311,79.703ZM271.625,84.311C273.086,84.311 274.047,83.995 274.798,83.442C275.93,82.599 276.628,81.23 276.628,79.703C276.628,78.176 275.917,76.807 274.784,75.964C274.034,75.411 273.086,75.095 271.625,75.095L268.86,75.095L268.86,84.311L271.625,84.311Z" style="fill:rgb(35,31,32);fill-rule:nonzero;"/>
        <rect x="280.116" y="75.095" width="1.317" height="9.216" style="fill:rgb(35,31,32);fill-rule:nonzero;"/>
        <path d="M284.921,79.703C284.921,82.428 286.949,84.442 289.7,84.442C291.122,84.442 292.491,83.745 293.281,82.731L292.346,81.888C291.833,82.507 290.938,83.192 289.7,83.192C287.739,83.192 286.238,81.783 286.238,79.703C286.238,77.715 287.699,76.214 289.582,76.214C290.569,76.214 291.53,76.662 292.07,77.254L292.952,76.385C292.149,75.503 290.898,74.963 289.582,74.963C286.922,74.963 284.921,77.044 284.921,79.703Z" style="fill:rgb(35,31,32);fill-rule:nonzero;"/>
        <path d="M302.839,84.311L304.209,84.311L300.391,75.095L299.469,75.095L295.651,84.311L297.02,84.311L297.982,81.941L301.865,81.941L302.839,84.311ZM299.93,77.267L301.352,80.69L298.508,80.69L299.93,77.267Z" style="fill:rgb(35,31,32);fill-rule:nonzero;"/>
        <path d="M308.618,75.095L307.302,75.095L307.302,84.311L312.699,84.311L312.699,83.06L308.618,83.06L308.618,75.095Z" style="fill:rgb(35,31,32);fill-rule:nonzero;"/>
        <rect x="138.038" y="89.191" width="1.317" height="9.215" style="fill:rgb(35,31,32);fill-rule:nonzero;"/>
        <path d="M151.203,92.206L151.203,98.406L152.52,98.406L152.52,89.191L151.598,89.191L148.044,94.812L144.489,89.191L143.568,89.191L143.568,98.406L144.884,98.406L144.884,92.206L147.583,96.432L148.505,96.432L151.203,92.206Z" style="fill:rgb(35,31,32);fill-rule:nonzero;"/>
        <path d="M162.801,98.406L164.171,98.406L160.353,89.191L159.431,89.191L155.613,98.406L156.982,98.406L157.943,96.037L161.827,96.037L162.801,98.406ZM159.892,91.363L161.314,94.786L158.47,94.786L159.892,91.363Z" style="fill:rgb(35,31,32);fill-rule:nonzero;"/>
        <path d="M174.703,92.811L170.754,92.811L170.754,94.062L173.387,94.062L173.387,96.432C172.899,96.919 172.096,97.287 171.122,97.287C169.161,97.287 167.66,95.879 167.66,93.799C167.66,91.811 169.121,90.31 171.004,90.31C171.991,90.31 172.952,90.757 173.492,91.35L174.374,90.481C173.571,89.599 172.32,89.059 171.004,89.059C168.344,89.059 166.343,91.139 166.343,93.799C166.343,96.524 168.371,98.538 171.122,98.538C172.544,98.538 173.913,97.827 174.703,96.827L174.703,92.811Z" style="fill:rgb(35,31,32);fill-rule:nonzero;"/>
        <path d="M179.903,92.811L179.903,90.441L183.853,90.441L183.853,89.191L178.587,89.191L178.587,98.406L183.985,98.406L183.985,97.156L179.903,97.156L179.903,94.062L182.931,94.062L182.931,92.811L179.903,92.811Z" style="fill:rgb(35,31,32);fill-rule:nonzero;"/>
        <path d="M192.212,93.799C192.212,96.524 194.24,98.538 196.991,98.538C198.413,98.538 199.782,97.84 200.572,96.827L199.638,95.984C199.124,96.603 198.229,97.287 196.991,97.287C195.03,97.287 193.529,95.879 193.529,93.799C193.529,91.811 194.99,90.31 196.873,90.31C197.86,90.31 198.821,90.757 199.361,91.35L200.243,90.481C199.44,89.599 198.189,89.059 196.873,89.059C194.213,89.059 192.212,91.139 192.212,93.799Z" style="fill:rgb(35,31,32);fill-rule:nonzero;"/>
        <path d="M203.008,93.799C203.008,96.484 205.009,98.538 207.616,98.538C210.222,98.538 212.223,96.484 212.223,93.799C212.223,91.113 210.222,89.059 207.616,89.059C205.009,89.059 203.008,91.113 203.008,93.799ZM204.324,93.799C204.324,91.811 205.733,90.31 207.616,90.31C209.498,90.31 210.907,91.811 210.907,93.799C210.907,95.8 209.498,97.287 207.616,97.287C205.733,97.287 204.324,95.8 204.324,93.799Z" style="fill:rgb(35,31,32);fill-rule:nonzero;"/>
        <path d="M223.348,92.206L223.348,98.406L224.665,98.406L224.665,89.191L223.743,89.191L220.189,94.812L216.634,89.191L215.712,89.191L215.712,98.406L217.029,98.406L217.029,92.206L219.728,96.432L220.649,96.432L223.348,92.206Z" style="fill:rgb(35,31,32);fill-rule:nonzero;"/>
        <path d="M230.193,93.075L230.193,90.442L232.3,90.442C232.932,90.442 233.274,90.6 233.511,90.85C233.735,91.087 233.88,91.403 233.88,91.758C233.88,92.114 233.735,92.429 233.511,92.666C233.274,92.917 232.932,93.075 232.3,93.075L230.193,93.075ZM232.366,94.325C233.261,94.325 233.84,94.101 234.288,93.72C234.841,93.246 235.196,92.548 235.196,91.758C235.196,90.968 234.841,90.27 234.288,89.796C233.84,89.415 233.261,89.191 232.366,89.191L228.877,89.191L228.877,98.406L230.193,98.406L230.193,94.325L232.366,94.325Z" style="fill:rgb(35,31,32);fill-rule:nonzero;"/>
        <path d="M242.305,98.538C243.438,98.538 244.465,98.077 245.162,97.327C245.755,96.682 246.123,95.826 246.123,94.589L246.123,89.191L244.807,89.191L244.807,94.654C244.807,95.523 244.596,96.063 244.228,96.471C243.767,96.985 243.082,97.287 242.305,97.287C241.529,97.287 240.844,96.985 240.383,96.471C240.015,96.063 239.804,95.523 239.804,94.654L239.804,89.191L238.488,89.191L238.488,94.589C238.488,95.826 238.856,96.682 239.449,97.327C240.146,98.077 241.173,98.538 242.305,98.538Z" style="fill:rgb(35,31,32);fill-rule:nonzero;"/>
        <path d="M249.217,90.442L251.718,90.442L251.718,98.406L253.035,98.406L253.035,90.442L255.536,90.442L255.536,89.191L249.217,89.191L249.217,90.442Z" style="fill:rgb(35,31,32);fill-rule:nonzero;"/>
        <rect x="258.762" y="89.191" width="1.316" height="9.215" style="fill:rgb(35,31,32);fill-rule:nonzero;"/>
        <path d="M271.138,98.406L272.06,98.406L272.06,89.191L270.743,89.191L270.743,95.958L265.214,89.191L264.292,89.191L264.292,98.406L265.609,98.406L265.609,91.64L271.138,98.406Z" style="fill:rgb(35,31,32);fill-rule:nonzero;"/>
        <path d="M283.907,92.811L279.958,92.811L279.958,94.062L282.591,94.062L282.591,96.432C282.104,96.919 281.301,97.287 280.326,97.287C278.365,97.287 276.864,95.879 276.864,93.799C276.864,91.811 278.325,90.31 280.208,90.31C281.195,90.31 282.156,90.758 282.696,91.35L283.578,90.481C282.775,89.599 281.525,89.059 280.208,89.059C277.549,89.059 275.548,91.139 275.548,93.799C275.548,96.524 277.575,98.538 280.326,98.538C281.748,98.538 283.118,97.827 283.907,96.827L283.907,92.811Z" style="fill:rgb(35,31,32);fill-rule:nonzero;"/>
        <rect x="90.148" y="30.038" width="15.365" height="2.613" style="fill:white;fill-rule:nonzero;"/>
        <rect x="83.559" y="12.798" width="2.636" height="37.093" style="fill:white;fill-rule:nonzero;"/>
        <rect x="109.466" y="12.798" width="2.636" height="37.093" style="fill:white;fill-rule:nonzero;"/>
        <path d="M30.299,89.236L35.486,97.646L33.942,97.646L28.872,89.421C29.359,89.404 29.846,89.354 30.299,89.236ZM23.015,85.426L28.721,85.426C31.39,85.426 33.505,83.261 33.505,80.609C33.505,77.957 31.357,75.825 28.721,75.825L23.015,75.825L23.015,74.516L28.721,74.516C32.078,74.516 34.814,77.235 34.814,80.609C34.814,83.983 32.078,86.735 28.721,86.735L23.015,86.735L23.015,85.426ZM19.02,74.516L20.329,74.516L20.329,97.646L19.02,97.646L19.02,74.516Z" style="fill:rgb(35,31,32);fill-rule:nonzero;"/>
        <path d="M50.336,90.44C50.336,87.137 47.884,85.061 44.932,85.061C42.118,85.061 39.813,86.951 39.078,89.566L40.409,89.566C41.055,87.58 42.767,86.212 44.882,86.212C47.159,86.212 49.135,87.946 49.035,90.648L43.028,90.648L43.028,91.774L50.236,91.774C50.261,91.674 50.336,91.04 50.336,90.44ZM39.001,92.838C39.646,95.628 42.086,97.644 45.083,97.644C47.084,97.644 48.76,96.769 49.935,95.393L49.135,94.568C48.134,95.743 46.784,96.468 45.107,96.468C42.761,96.468 40.909,95.011 40.325,92.838L39.001,92.838Z" style="fill:rgb(35,31,32);fill-rule:nonzero;"/>
        <path d="M54.531,80.576L55.84,82.069L55.84,97.646L54.531,97.646L54.531,80.576ZM54.531,76.53L54.531,74.516L64.551,85.997L74.572,74.516L74.572,97.646L73.262,97.646L73.262,78.041L64.551,88.028L54.531,76.53Z" style="fill:rgb(35,31,32);fill-rule:nonzero;"/>
        <rect x="82.785" y="74.516" width="1.309" height="23.13" style="fill:rgb(35,31,32);fill-rule:nonzero;"/>
        <path d="M104.03,96.319C106.178,96.034 108.126,95.095 109.636,93.701L110.526,94.675C108.763,96.27 106.514,97.344 104.03,97.646L104.03,96.319ZM104.03,74.516C106.514,74.785 108.763,75.859 110.526,77.47L109.636,78.444C108.126,77.051 106.178,76.111 104.03,75.825L104.03,74.516ZM101.344,97.646C95.536,96.974 91.038,92.057 91.038,86.064C91.038,80.089 95.536,75.171 101.344,74.516L101.344,75.825C96.225,76.497 92.347,80.844 92.347,86.064C92.347,91.301 96.225,95.649 101.344,96.319L101.344,97.646Z" style="fill:rgb(35,31,32);fill-rule:nonzero;"/>
    </g>
</svg>
